<svg width="213" height="198" viewBox="0 0 213 198" fill="none" xmlns="http://www.w3.org/2000/svg">
<g clip-path="url(#clip0_9_192)">
<path d="M32.6485 210.585V199.149H39.585C45.2369 199.149 46.5215 199.384 46.5215 200.42C46.5215 201.436 45.3654 201.69 40.7411 201.69H34.9607V205.502V209.314H39.9704C43.9096 209.314 44.98 209.585 44.98 210.585C44.98 211.584 43.9096 211.855 39.9704 211.855H34.9607V216.938C34.9607 220.891 34.7038 222.02 33.8046 222.02C32.8341 222.02 32.6485 220.185 32.6485 210.585ZM55.0225 220.936C53.9755 220.354 52.3281 218.588 51.3616 217.012C46.8806 209.704 51.5302 199.174 59.2383 199.174C66.9465 199.174 71.5961 209.704 67.115 217.012C65.0632 220.358 62.4757 221.995 59.2383 221.995C57.9666 221.995 56.0695 221.519 55.0225 220.936ZM64.0123 217.435C65.9091 215.641 66.1748 214.8 66.1748 210.585C66.1748 206.369 65.9091 205.528 64.0123 203.735C61.1928 201.069 57.3221 201.033 54.558 203.646C52.9571 205.159 52.4031 206.587 52.1082 209.96C51.759 213.954 51.9235 214.534 54.0747 216.899C57.0712 220.192 60.8783 220.397 64.0123 217.435ZM78.1209 211.855V201.69H74.6527C72.0836 201.69 71.1845 201.361 71.1845 200.42C71.1845 199.371 72.5974 199.149 79.277 199.149C85.9565 199.149 87.3695 199.371 87.3695 200.42C87.3695 201.361 86.4704 201.69 83.9013 201.69H80.4331V211.855C80.4331 220.326 80.2405 222.02 79.277 222.02C78.3136 222.02 78.1209 220.326 78.1209 211.855ZM94.3291 220.936C93.2821 220.354 91.6347 218.588 90.6682 217.012C86.1872 209.704 90.8369 199.174 98.545 199.174C101.782 199.174 104.37 200.811 106.422 204.157C110.903 211.466 106.253 221.995 98.545 221.995C97.2733 221.995 95.3761 221.519 94.3291 220.936ZM103.319 217.435C105.216 215.641 105.481 214.8 105.481 210.585C105.481 206.369 105.216 205.528 103.319 203.735C100.499 201.069 96.6287 201.033 93.8646 203.646C92.2637 205.159 91.7097 206.587 91.4149 209.96C91.0657 213.954 91.2302 214.534 93.3813 216.899C96.3778 220.192 100.185 220.397 103.319 217.435ZM112.033 210.585C112.033 200.984 112.218 199.149 113.189 199.149C114.11 199.149 114.345 200.394 114.345 205.269V211.389L119.951 205.269C123.052 201.883 126.226 199.149 127.056 199.149C128.207 199.149 127.54 200.278 124.178 204.02L119.802 208.89L124.451 215.455C128.069 220.564 128.785 222.02 127.676 222.02C126.824 222.02 124.729 219.806 122.467 216.514C120.385 213.486 118.461 211.008 118.189 211.008C117.918 211.008 116.942 211.89 116.02 212.969C114.851 214.337 114.345 216 114.345 218.475C114.345 221.061 114.032 222.02 113.189 222.02C112.218 222.02 112.033 220.185 112.033 210.585ZM130.53 210.585V199.149H136.731C142.286 199.149 143.128 199.365 144.823 201.228C145.864 202.372 146.715 204.295 146.715 205.502C146.715 207.695 143.684 211.855 142.086 211.855C141.622 211.855 142.081 213.094 143.105 214.608C144.131 216.122 145.575 218.409 146.316 219.691C147.615 221.937 147.61 222.02 146.185 222.02C145.254 222.02 143.498 220.137 141.445 216.938C138.529 212.393 137.901 211.855 135.513 211.855H132.842V216.938C132.842 220.891 132.585 222.02 131.686 222.02C130.715 222.02 130.53 220.185 130.53 210.585ZM143.192 207.983C144.845 206.166 144.714 203.627 142.912 202.567C142.092 202.085 139.491 201.69 137.131 201.69H132.842V205.502V209.314H137.411C140.537 209.314 142.363 208.894 143.192 207.983ZM149.155 221.285C155.495 203.151 157.212 199.153 158.661 199.153C160.11 199.153 161.827 203.151 168.166 221.285C168.308 221.689 167.871 222.02 167.197 222.02C166.485 222.02 165.452 220.598 164.737 218.632L163.503 215.244H158.661H153.819L152.585 218.632C151.87 220.598 150.837 222.02 150.125 222.02C149.45 222.02 149.014 221.689 149.155 221.285ZM162.129 212.1C162.129 211.769 161.359 209.316 160.418 206.649L158.708 201.8L156.95 206.548C155.984 209.159 155.193 211.612 155.193 211.999C155.193 212.386 156.753 212.702 158.661 212.702C160.568 212.702 162.129 212.431 162.129 212.1ZM170.607 210.585V199.149H177.544C183.196 199.149 184.48 199.384 184.48 200.42C184.48 201.436 183.324 201.69 178.7 201.69H172.919V205.502V209.314H177.929C181.868 209.314 182.939 209.585 182.939 210.585C182.939 211.584 181.868 211.855 177.929 211.855H172.919V216.938C172.919 220.891 172.662 222.02 171.763 222.02C170.793 222.02 170.607 220.185 170.607 210.585ZM192.958 211.855V201.69H189.49C186.921 201.69 186.021 201.361 186.021 200.42C186.021 199.371 187.434 199.149 194.114 199.149C200.794 199.149 202.207 199.371 202.207 200.42C202.207 201.361 201.307 201.69 198.738 201.69H195.27V211.855C195.27 220.326 195.078 222.02 194.114 222.02C193.151 222.02 192.958 220.326 192.958 211.855ZM59.3208 196.962C59.0636 196.225 58.8529 194.151 58.8529 192.353C58.8529 190.555 58.5061 188.848 58.0822 188.56C57.6583 188.272 57.3115 187.132 57.3115 186.026C57.3115 184.722 56.7378 183.816 55.6794 183.446C54.2618 182.952 54.1036 182.416 54.4757 179.367C54.7428 177.178 55.5746 175.219 56.6858 174.161C58.4171 172.514 58.4348 172.354 57.3115 168.518C56.6757 166.346 55.5485 163.839 54.8067 162.945C53.1692 160.973 53.0992 160.183 54.562 160.183C56.0633 160.183 56.8813 156.996 55.7609 155.512C55.2618 154.851 54.9997 153.829 55.1782 153.24C55.3568 152.651 54.7826 151.522 53.9023 150.731C52.6188 149.576 52.4926 149.078 53.2652 148.215C54.5978 146.726 54.4746 144.089 53.0724 144.089C51.751 144.089 51.6295 143.358 52.6548 141.576C53.5598 140.003 52.2637 138.159 50.2534 138.159C48.6375 138.159 44.9799 135.81 44.9799 134.772C44.9799 134.414 45.6735 133.922 46.5213 133.678C47.3691 133.435 48.0628 132.557 48.0628 131.728C48.0628 130.899 48.8217 129.333 49.7494 128.248L51.4359 126.275L48.5933 123.075C45.4296 119.514 45.0824 118.176 47.1358 117.46C48.3302 117.043 48.4794 116.19 48.2199 111.262C48.0328 107.713 47.5093 105.191 46.8384 104.609C45.9136 103.806 45.9261 103.074 46.9252 99.5264C47.5672 97.2467 48.2837 93.0086 48.5174 90.1085C48.9081 85.2604 48.7827 84.6601 46.9611 82.658C44.4979 79.9507 44.4909 79.3801 46.9065 78.1704C48.3429 77.4511 48.8333 76.5541 48.8333 74.6461C48.8333 72.9125 48.4525 72.0867 47.653 72.0867C46.1095 72.0867 45.4267 70.0309 46.3609 68.1962C46.8858 67.1652 46.7022 65.9833 45.7278 64.1211C44.9729 62.6785 44.1209 59.8938 43.8344 57.933C43.341 54.556 43.1977 54.3932 41.1198 54.85C39.8547 55.1281 37.4342 54.706 35.4018 53.8529C30.5236 51.8053 30.7394 50.0032 36.3221 46.1677C40.6439 43.1985 40.7587 43.023 40.4801 39.8117C40.2539 37.205 40.4579 36.5093 41.4397 36.5093C43.2097 36.5093 42.3088 30.8592 39.4278 23.8919C38.1958 20.9125 37.467 18.2062 37.8082 17.878C39.9454 15.822 48.0465 13.6461 48.0748 15.1204C48.0797 15.4699 48.4273 20.27 48.8432 25.7874C49.8859 39.6198 52.0829 44.133 57.7737 44.133C60.3562 44.133 62.6431 42.1724 61.2023 41.1936C60.7413 40.8805 60.3862 37.4819 60.3757 33.2827C60.3585 26.4723 59.7926 22.0077 58.5189 18.6383C58.0813 17.4808 58.8128 17.2597 63.5862 17.1065C66.6544 17.008 69.4309 16.7467 69.7563 16.5257C70.0816 16.3047 70.8864 17.2686 71.5446 18.6677C73.6214 23.0816 77.603 24.1697 82.173 21.5723C84.8077 20.0749 87.6374 20.1436 155.578 23.3556C185.126 24.7526 192.187 25.3423 192.187 26.413C192.187 27.6828 186.209 30.5829 182.363 31.1795C178.721 31.7442 178.715 31.7511 181.248 32.3371C182.65 32.6614 187.055 33.1952 191.038 33.5233C198.749 34.1587 200.973 35.3299 199.123 37.7799C198.31 38.8573 194.634 39.0524 174.944 39.0631C162.173 39.07 146.695 39.464 140.549 39.9387C134.402 40.4133 125.732 40.8135 121.281 40.8279C114.16 40.8508 92.0434 42.9488 91.3937 43.6628C90.6229 44.51 96.9962 44.8899 99.8181 44.165C105.034 42.825 164.505 42.0676 176.734 43.1854C182.435 43.7066 187.421 44.4854 187.813 44.9161C188.249 45.3955 189.482 45.1976 190.993 44.4058C193.29 43.2019 193.737 43.2429 197.448 44.9976C199.641 46.0345 201.436 47.3473 201.436 47.9151C201.436 49.8656 192.275 52.1915 185.25 52.0244C159.292 51.4069 158.387 51.3202 156.391 49.2589C155.076 47.9014 154.077 47.5064 153.112 47.9619C149.684 49.5793 112.632 52.0083 110.345 50.7655C109.581 50.3503 108.846 50.409 108.565 50.9073C108.3 51.379 104.767 51.7625 100.619 51.7697C96.5107 51.7766 92.7356 52.072 92.2295 52.4256C90.9047 53.3513 91.8264 78.0163 93.1858 78.0163C93.8453 78.0163 94.2303 80.1418 94.4252 84.8577C94.7494 92.7054 95.2647 93.3817 101.499 94.141C104.018 94.4477 105.72 94.2133 106.754 93.4173C107.929 92.5124 108.985 92.4355 111.314 93.0853C113.809 93.7813 114.344 93.712 114.344 92.693C114.344 91.3964 117.052 91.8255 118.545 93.3589C119.767 94.6142 121.47 94.2104 123.413 92.2049C125.076 90.4871 125.348 90.4335 126.165 91.6618C126.963 92.8603 127.536 92.8937 130.92 91.9386C133.277 91.2736 135.052 91.1558 135.501 91.6346C135.903 92.0647 137.758 92.4166 139.623 92.4166C141.488 92.4166 144.106 92.9674 145.442 93.6406C146.778 94.3137 150.298 95.0598 153.266 95.2985C156.233 95.5372 160.352 95.8674 162.418 96.0323C164.979 96.2366 166.513 96.8391 167.235 97.9246C168.85 100.352 168.522 101.879 165.677 105.177L163.073 108.196L154.276 106.288C135.694 102.258 107.197 99.7137 97.8628 101.252L94.1233 101.868L94.6511 106.249C95.5716 113.887 96.3205 114.833 101.637 115.072C104.175 115.187 110.153 114.839 114.92 114.3C121.363 113.571 124.078 113.564 125.494 114.274C127.067 115.061 127.526 114.981 128.12 113.816C128.725 112.626 129.033 112.58 130.069 113.526C130.991 114.366 131.563 114.409 132.346 113.694C132.947 113.146 134.422 112.967 135.812 113.272C137.303 113.6 138.683 113.394 139.405 112.735C140.363 111.862 140.838 111.924 141.995 113.075C143.285 114.359 144.22 114.385 152.405 113.373C161.205 112.285 161.431 112.299 162.92 114.041C164.843 116.291 164.839 116.982 162.9 116.982C162.052 116.982 161.359 117.291 161.359 117.668C161.359 119.138 156.423 123.801 154.136 124.492C152.064 125.118 152.619 125.312 158.083 125.87C164.281 126.502 164.441 126.575 164.437 128.739C164.435 130.501 163.225 131.984 158.575 135.929L152.718 140.9L148.753 139.408C142.468 137.043 130.682 136.79 123.153 138.858C118.696 140.082 115.584 140.433 112.176 140.093C109.475 139.824 105.419 140.085 102.79 140.699L98.1598 141.779V162.466C98.1598 182.009 98.968 193.47 100.582 196.819C101.247 198.198 100.545 198.302 90.5783 198.302H79.8596L79.3863 195.049C79.1259 193.26 78.0064 190.327 76.8981 188.533C75.0695 185.571 74.9641 184.973 75.7583 182.059C76.4734 179.436 76.4135 178.381 75.4307 176.293C74.3736 174.046 74.3623 173.451 75.3375 171.378C76.3512 169.224 76.287 168.657 74.5936 164.813C73.5743 162.5 72.7371 159.986 72.7332 159.228C72.7307 158.47 72.2059 157.375 71.57 156.795C69.9748 155.34 70.1233 154.014 72.028 152.706C73.5721 151.646 73.5835 151.527 72.291 149.958C71.1657 148.591 71.0911 147.953 71.844 146.137C72.6335 144.232 72.527 143.756 71.0029 142.375C69.4219 140.943 65.6636 140.556 64.6076 141.717C63.6769 142.74 66.8165 165.602 69.5283 177.548C70.3743 181.275 71.2904 187.47 71.564 191.313L72.0613 198.302H65.9251C61.0406 198.302 59.6931 198.028 59.3208 196.962ZM90.1921 178.607C89.9782 178.025 89.8034 178.501 89.8034 179.666C89.8034 180.831 89.9782 181.307 90.1921 180.725C90.406 180.143 90.406 179.19 90.1921 178.607ZM89.4214 174.372C89.2075 173.789 89.0326 174.266 89.0326 175.431C89.0326 176.595 89.2077 177.072 89.4214 176.49C89.6353 175.907 89.6353 174.954 89.4214 174.372ZM86.154 148.694C85.4118 146.558 85.0803 144.104 85.3655 142.855C85.7708 141.08 85.5833 140.7 84.3013 140.7C82.5239 140.7 82.3373 142.203 83.5644 146.635C84.3916 149.624 85.4888 155.727 86.4568 162.724C86.9183 166.061 87.0123 165.653 87.2093 159.458C87.3701 154.403 87.0684 151.326 86.154 148.694ZM69.8066 128.206C69.322 125.336 68.4249 124.635 65.2114 124.619C60.7877 124.596 62.6858 129.351 67.3308 129.929C68.8145 130.113 70.067 130.325 70.1142 130.4C70.1614 130.474 70.023 129.487 69.8066 128.206ZM102.399 127.976C104.465 127.39 104.322 127.311 101.05 127.234C98.1684 127.165 97.3889 127.437 97.3889 128.508C97.3889 129.476 97.779 129.69 98.7376 129.251C99.4795 128.91 101.127 128.337 102.399 127.976ZM84.2867 127.571C84.2867 126.872 83.9398 126.3 83.5159 126.3C83.092 126.3 82.7452 126.872 82.7452 127.571C82.7452 128.269 83.092 128.841 83.5159 128.841C83.9398 128.841 84.2867 128.269 84.2867 127.571ZM119.354 127.147C119.66 126.604 117.533 126.355 113.427 126.453L107.023 126.605L112.803 127.147C115.982 127.445 118.65 127.758 118.731 127.841C118.812 127.925 119.092 127.613 119.354 127.147ZM68.4102 112.409C68.1827 111.757 68.3672 110.972 68.8197 110.665C69.2725 110.357 69.643 108.744 69.643 107.08C69.643 104.055 69.6423 104.054 66.7528 104.579C65.1632 104.868 63.0822 105.108 62.1285 105.114C60.6621 105.121 60.3944 105.581 60.3944 108.088C60.3944 110.789 60.5913 111.052 62.6122 111.052C63.8319 111.052 65.2617 111.624 65.7894 112.323C67.0006 113.927 68.9627 113.991 68.4102 112.409ZM82.1978 111.9C81.9761 110.968 81.7022 110.205 81.5892 110.205C81.4761 110.205 81.2022 110.968 80.9804 111.9C80.7285 112.958 80.9583 113.594 81.5892 113.594C82.2215 113.594 82.4498 112.958 82.1978 111.9ZM80.9782 104.921C80.7937 103.867 80.636 104.53 80.6274 106.394C80.6176 108.257 80.7698 109.119 80.9626 108.309C81.1554 107.499 81.1633 105.975 80.9782 104.921ZM65.1667 90.418C65.3305 84.6627 65.2978 83.5986 64.6936 75.0968C64.4457 71.6099 63.8158 68.7074 63.1472 67.9725C61.9946 66.7057 56.438 64.2936 55.938 64.8431C55.7861 65.0102 56.1886 68.3284 56.8326 72.2169C58.4776 82.15 59.6237 91.0501 59.6237 93.8921C59.6237 96.1588 59.7943 96.29 62.3212 95.9657L65.0187 95.6196L65.1667 90.418ZM62.6078 53.3659C60.428 51.8483 59.2089 52.6165 61.1651 54.275C62.3163 55.2509 63.2073 55.5449 63.3785 55.0053C63.5361 54.5085 63.1894 53.7708 62.6078 53.3659ZM77.474 37.8766C77.324 36.4752 77.6528 35.1253 78.2447 34.7131C79.0297 34.1662 78.9407 33.9908 77.8731 33.981C76.7974 33.971 76.5271 33.4235 76.717 31.6385C76.9392 29.5494 76.6998 29.281 74.383 29.0373L71.8012 28.7656L72.2673 32.0021C72.5237 33.7822 72.8068 36.4955 72.8964 38.0316C73.0461 40.6004 73.2471 40.8045 75.3974 40.5729C77.4804 40.3486 77.707 40.0543 77.474 37.8766ZM102.013 32.6974C105.834 28.4454 106.033 28.0412 104.299 28.0706C102.883 28.0946 101.653 29.2824 99.4756 32.7295C97.868 35.2743 96.8394 37.3563 97.1898 37.3563C97.5402 37.3563 99.7107 35.2598 102.013 32.6974ZM112.418 33.1209C115.473 29.7114 115.913 28.8855 114.672 28.8855C113.824 28.8855 111.423 30.7914 109.335 33.1209C106.279 36.5305 105.84 37.3563 107.081 37.3563C107.929 37.3563 110.33 35.4504 112.418 33.1209ZM122.501 32.4856C127.074 27.0172 125.168 26.7518 120.237 32.1705C117.311 35.3873 116.658 36.5093 117.713 36.5093C118.496 36.5093 120.65 34.6986 122.501 32.4856ZM93.0584 32.2738C94.8353 29.3227 94.9231 28.887 93.7389 28.8971C90.3199 28.9262 88.911 29.9198 88.911 32.302C88.911 33.6066 89.3445 34.8662 89.8744 35.1012C90.4043 35.3362 90.8784 35.5585 90.928 35.5953C90.9774 35.6321 91.9364 34.1374 93.0584 32.2738ZM131.426 31.9578C133.402 29.9575 134.545 28.3208 133.965 28.3208C133.385 28.3208 131.436 29.9726 129.633 31.9915C125.405 36.7266 126.739 36.7016 131.426 31.9578ZM142.09 31.8503C144.422 29.2061 144.532 28.8855 143.104 28.8855C142.18 28.8855 140.633 30.1391 139.445 31.8503C138.095 33.7963 137.747 34.8151 138.432 34.8151C139.006 34.8151 140.653 33.4809 142.09 31.8503ZM150.954 31.4268C152.185 29.9315 152.202 29.7326 151.1 29.7326C150.414 29.7326 149.481 30.495 149.027 31.4268C148.573 32.3586 148.507 33.1209 148.88 33.1209C149.254 33.1209 150.187 32.3586 150.954 31.4268ZM160.296 31.1601C160.927 31.4261 161.358 31.0553 161.358 30.2468C161.358 28.2599 159.583 28.5836 158.37 30.7915C157.672 32.0625 157.642 32.3667 158.279 31.7047C158.804 31.1588 159.712 30.9137 160.296 31.1601Z" fill="white"/>
</g>
<defs>
<clipPath id="clip0_9_192">
<rect width="213" height="198" fill="white"/>
</clipPath>
</defs>
</svg>
